<svg width="2137" height="2137" viewBox="0 0 2137 2137" fill="none" xmlns="http://www.w3.org/2000/svg">
<rect width="2137" height="2137" fill="#0F2E4A"/>
<path d="M339.41 1125.4C320.61 1125.4 304.477 1122.6 291.01 1117C277.677 1111.27 267.477 1103 260.41 1092.2C253.477 1081.27 250.01 1068.27 250.01 1053.2V1053C250.01 1038.2 253.543 1025.53 260.61 1015C267.677 1004.33 277.943 996.267 291.41 990.8C304.877 985.2 321.01 982.4 339.81 982.4C366.21 982.533 386.81 987.133 401.61 996.2C416.41 1005.27 424.01 1017.93 424.41 1034.2V1034.6H396.41V1034C396.143 1024.4 391.01 1016.93 381.01 1011.6C371.143 1006.27 357.477 1003.6 340.01 1003.6C320.81 1003.6 305.81 1007.93 295.01 1016.6C284.21 1025.27 278.81 1037.4 278.81 1053V1053.2C278.81 1069.33 284.21 1081.93 295.01 1091C305.943 1099.93 321.077 1104.4 340.41 1104.4C357.61 1104.4 371.143 1101.47 381.01 1095.6C390.877 1089.73 396.01 1081.6 396.41 1071.2V1070.8H424.41V1071.2C424.01 1088.4 416.344 1101.73 401.41 1111.2C386.61 1120.67 365.943 1125.4 339.41 1125.4ZM509.523 1022.4C529.789 1022.4 545.056 1025.47 555.323 1031.6C565.723 1037.6 570.923 1046.93 570.923 1059.6V1124H547.923V1110.4C542.323 1115.33 534.923 1119.13 525.723 1121.8C516.656 1124.33 506.056 1125.6 493.923 1125.6C477.523 1125.6 464.789 1122.87 455.723 1117.4C446.789 1111.8 442.323 1104.07 442.323 1094.2V1094C442.323 1076.27 456.923 1066.8 486.123 1065.6L545.523 1062.8V1059.6C545.523 1052.67 542.523 1047.6 536.523 1044.4C530.523 1041.2 521.256 1039.6 508.723 1039.6C496.456 1039.6 486.923 1041.13 480.123 1044.2C473.323 1047.13 469.923 1051.27 469.923 1056.6V1057.4H445.523V1056.8C445.523 1045.6 450.923 1037.07 461.723 1031.2C472.523 1025.33 488.456 1022.4 509.523 1022.4ZM499.523 1108.6C513.923 1108.6 525.189 1106.27 533.323 1101.6C541.456 1096.93 545.523 1090.53 545.523 1082.4V1077L494.123 1078.8C484.789 1079.2 478.123 1080.53 474.123 1082.8C470.256 1085.07 468.323 1088.33 468.323 1092.6V1092.8C468.323 1097.73 471.056 1101.6 476.523 1104.4C482.123 1107.2 489.789 1108.6 499.523 1108.6ZM672.012 1022.4C688.012 1022.4 700.478 1026.07 709.412 1033.4C718.478 1040.6 723.012 1050.8 723.012 1064V1124H697.612V1067C697.612 1059.13 694.812 1052.93 689.212 1048.4C683.745 1043.87 676.212 1041.6 666.612 1041.6C651.412 1041.6 639.412 1044.73 630.612 1051C621.945 1057.13 617.612 1065.6 617.612 1076.4V1124H592.412V1024H614.612V1043.2C620.212 1036.4 627.878 1031.27 637.612 1027.8C647.478 1024.2 658.945 1022.4 672.012 1022.4ZM860.124 1024L807.924 1131.2C802.591 1142.8 795.791 1151.4 787.524 1157C779.258 1162.73 768.724 1165.6 755.924 1165.6C750.591 1165.6 744.924 1165.2 738.924 1164.4V1146.8C742.791 1147.6 746.458 1148 749.924 1148C757.791 1148 764.058 1146.33 768.724 1143C773.524 1139.67 778.058 1133.87 782.324 1125.6L733.124 1024H759.324L796.724 1106.8L834.124 1024H860.124ZM933.179 1125.6C911.846 1125.6 895.179 1121.13 883.179 1112.2C871.312 1103.27 865.379 1090.47 865.379 1073.8V1073.6C865.379 1057.07 871.312 1044.4 883.179 1035.6C895.179 1026.8 911.846 1022.4 933.179 1022.4C954.646 1022.4 971.446 1026.8 983.579 1035.6C995.712 1044.4 1001.78 1057.07 1001.78 1073.6V1073.8C1001.78 1090.47 995.712 1103.27 983.579 1112.2C971.446 1121.13 954.646 1125.6 933.179 1125.6ZM933.179 1108.4C946.646 1108.4 957.112 1105.47 964.579 1099.6C972.046 1093.6 975.779 1085 975.779 1073.8V1073.6C975.779 1062.53 972.046 1054.13 964.579 1048.4C957.112 1042.53 946.646 1039.6 933.179 1039.6C919.979 1039.6 909.712 1042.53 902.379 1048.4C895.046 1054.27 891.379 1062.67 891.379 1073.6V1073.8C891.379 1085 895.046 1093.6 902.379 1099.6C909.712 1105.47 919.979 1108.4 933.179 1108.4ZM1100.72 1022.4C1116.72 1022.4 1129.19 1026.07 1138.12 1033.4C1147.19 1040.6 1151.72 1050.8 1151.72 1064V1124H1126.32V1067C1126.32 1059.13 1123.52 1052.93 1117.92 1048.4C1112.46 1043.87 1104.92 1041.6 1095.32 1041.6C1080.12 1041.6 1068.12 1044.73 1059.32 1051C1050.66 1057.13 1046.32 1065.6 1046.32 1076.4V1124H1021.12V1024H1043.32V1043.2C1048.92 1036.4 1056.59 1031.27 1066.32 1027.8C1076.19 1024.2 1087.66 1022.4 1100.72 1022.4ZM1349.08 1051.4V1124H1337.88V1097C1331.75 1106.33 1322.48 1113.4 1310.08 1118.2C1297.81 1122.87 1282.88 1125.2 1265.28 1125.2C1236.21 1125.2 1213.95 1118.93 1198.48 1106.4C1183.01 1093.87 1175.28 1076 1175.28 1052.8V1052.4C1175.28 1030.13 1183.08 1013 1198.68 1001C1214.28 988.867 1236.35 982.8 1264.88 982.8C1290.88 982.8 1311.08 987.067 1325.48 995.6C1340.01 1004.13 1347.81 1016.2 1348.88 1031.8V1032.4H1336.68V1031.8C1335.75 1019.67 1329.15 1010.4 1316.88 1004C1304.61 997.467 1287.28 994.2 1264.88 994.2C1240.48 994.2 1221.68 999.267 1208.48 1009.4C1195.28 1019.4 1188.68 1033.73 1188.68 1052.4V1052.8C1188.68 1072.4 1195.28 1087.47 1208.48 1098C1221.68 1108.53 1240.81 1113.8 1265.88 1113.8C1288.55 1113.8 1306.01 1109.67 1318.28 1101.4C1330.68 1093 1336.88 1080.33 1336.88 1063.4V1062.2H1268.28V1051.4H1349.08ZM1391.79 1124H1380.19V984H1391.79V1124ZM1481.8 1125.4C1461.26 1125.4 1445.33 1120.87 1434 1111.8C1422.66 1102.73 1417 1090.07 1417 1073.8V1073.6C1417 1057.6 1422.66 1045.13 1434 1036.2C1445.46 1027.13 1461.4 1022.6 1481.8 1022.6C1502.46 1022.6 1518.53 1027.13 1530 1036.2C1541.46 1045.13 1547.2 1057.6 1547.2 1073.6V1073.8C1547.2 1090.07 1541.46 1102.73 1530 1111.8C1518.53 1120.87 1502.46 1125.4 1481.8 1125.4ZM1481.8 1115.4C1498.73 1115.4 1511.86 1111.73 1521.2 1104.4C1530.66 1097.07 1535.4 1086.87 1535.4 1073.8V1073.6C1535.4 1060.8 1530.66 1050.8 1521.2 1043.6C1511.86 1036.4 1498.73 1032.8 1481.8 1032.8C1465 1032.8 1451.93 1036.4 1442.6 1043.6C1433.4 1050.8 1428.8 1060.8 1428.8 1073.6V1073.8C1428.8 1086.87 1433.4 1097.07 1442.6 1104.4C1451.93 1111.73 1465 1115.4 1481.8 1115.4ZM1637.37 1022.6C1657.91 1022.6 1673.84 1027.13 1685.17 1036.2C1696.51 1045.13 1702.17 1057.67 1702.17 1073.8V1074C1702.17 1090.27 1696.51 1102.93 1685.17 1112C1673.84 1120.93 1657.91 1125.4 1637.37 1125.4C1624.44 1125.4 1613.24 1123.33 1603.77 1119.2C1594.44 1115.07 1587.37 1109.07 1582.57 1101.2V1124H1572.57V984H1584.17V1044.6C1589.11 1037.53 1596.11 1032.13 1605.17 1028.4C1614.24 1024.53 1624.97 1022.6 1637.37 1022.6ZM1690.37 1073.6C1690.37 1060.8 1685.71 1050.8 1676.37 1043.6C1667.17 1036.4 1654.17 1032.8 1637.37 1032.8C1620.84 1032.8 1607.84 1036.33 1598.37 1043.4C1588.91 1050.47 1584.17 1060.27 1584.17 1072.8V1074.6C1584.17 1087.4 1588.91 1097.4 1598.37 1104.6C1607.84 1111.67 1620.84 1115.2 1637.37 1115.2C1654.17 1115.2 1667.17 1111.6 1676.37 1104.4C1685.71 1097.07 1690.37 1086.87 1690.37 1073.8V1073.6ZM1785.25 1022.6C1804.59 1022.6 1819.19 1025.53 1829.05 1031.4C1838.92 1037.27 1843.85 1046.67 1843.85 1059.6V1124H1833.25V1107.4C1827.92 1113.4 1820.39 1117.93 1810.65 1121C1800.92 1123.93 1789.32 1125.4 1775.85 1125.4C1758.25 1125.4 1744.99 1122.67 1736.05 1117.2C1727.25 1111.73 1722.85 1104.27 1722.85 1094.8V1094.4C1722.85 1085.73 1726.45 1079.13 1733.65 1074.6C1740.85 1069.93 1752.25 1067.33 1767.85 1066.8L1832.25 1064.6V1059.6C1832.25 1049.87 1828.32 1042.93 1820.45 1038.8C1812.72 1034.67 1800.99 1032.6 1785.25 1032.6C1770.19 1032.6 1758.52 1034.47 1750.25 1038.2C1741.99 1041.93 1737.85 1047.67 1737.85 1055.4V1055.8H1726.25V1055.4C1726.25 1044.47 1731.45 1036.27 1741.85 1030.8C1752.25 1025.33 1766.72 1022.6 1785.25 1022.6ZM1776.45 1115.6C1793.79 1115.6 1807.39 1112.87 1817.25 1107.4C1827.25 1101.8 1832.25 1093.53 1832.25 1082.6V1073.4L1768.45 1075.4C1756.45 1075.8 1747.85 1077.6 1742.65 1080.8C1737.59 1083.87 1735.05 1088.33 1735.05 1094.2V1094.4C1735.05 1100.8 1738.45 1105.93 1745.25 1109.8C1752.19 1113.67 1762.59 1115.6 1776.45 1115.6ZM1883.78 1124H1872.18V984H1883.78V1124Z" fill="white"/>
</svg>
