<svg width="1879" height="1879" viewBox="0 0 1879 1879" fill="none" xmlns="http://www.w3.org/2000/svg">
<rect width="1879" height="1879" fill="#0F2E4A"/>
<path d="M273.245 929.8C272.579 923.8 268.779 919.133 261.845 915.8C255.045 912.333 245.579 910.6 233.445 910.6C220.379 910.6 210.245 913.6 203.045 919.6C195.979 925.467 192.445 933.933 192.445 945V945.2C192.445 956.267 196.045 964.733 203.245 970.6C210.579 976.467 221.179 979.4 235.045 979.4C246.245 979.4 255.179 977.6 261.845 974C268.512 970.4 272.312 965.533 273.245 959.4L273.445 958.6H297.645L297.445 960C296.645 971.867 290.912 980.933 280.245 987.2C269.712 993.467 254.779 996.6 235.445 996.6C213.312 996.6 196.245 992.2 184.245 983.4C172.379 974.467 166.445 961.667 166.445 945V944.8C166.445 928.267 172.312 915.6 184.045 906.8C195.779 897.867 212.379 893.4 233.845 893.4C253.712 893.4 269.112 896.533 280.045 902.8C290.979 908.933 296.779 917.6 297.445 928.8L297.645 930.6H273.445L273.245 929.8ZM380.12 893.4C400.387 893.4 415.654 896.467 425.92 902.6C436.32 908.6 441.52 917.933 441.52 930.6V995H418.52V981.4C412.92 986.333 405.52 990.133 396.32 992.8C387.254 995.333 376.654 996.6 364.52 996.6C348.12 996.6 335.387 993.867 326.32 988.4C317.387 982.8 312.92 975.067 312.92 965.2V965C312.92 947.267 327.52 937.8 356.72 936.6L416.12 933.8V930.6C416.12 923.667 413.12 918.6 407.12 915.4C401.12 912.2 391.854 910.6 379.32 910.6C367.054 910.6 357.52 912.133 350.72 915.2C343.92 918.133 340.52 922.267 340.52 927.6V928.4H316.12V927.8C316.12 916.6 321.52 908.067 332.32 902.2C343.12 896.333 359.054 893.4 380.12 893.4ZM370.12 979.6C384.52 979.6 395.787 977.267 403.92 972.6C412.054 967.933 416.12 961.533 416.12 953.4V948L364.72 949.8C355.387 950.2 348.72 951.533 344.72 953.8C340.854 956.067 338.92 959.333 338.92 963.6V963.8C338.92 968.733 341.654 972.6 347.12 975.4C352.72 978.2 360.387 979.6 370.12 979.6ZM542.609 893.4C558.609 893.4 571.076 897.067 580.009 904.4C589.076 911.6 593.609 921.8 593.609 935V995H568.209V938C568.209 930.133 565.409 923.933 559.809 919.4C554.343 914.867 546.809 912.6 537.209 912.6C522.009 912.6 510.009 915.733 501.209 922C492.543 928.133 488.209 936.6 488.209 947.4V995H463.009V895H485.209V914.2C490.809 907.4 498.476 902.267 508.209 898.8C518.076 895.2 529.543 893.4 542.609 893.4ZM730.722 895L678.522 1002.2C673.189 1013.8 666.389 1022.4 658.122 1028C649.855 1033.73 639.322 1036.6 626.522 1036.6C621.189 1036.6 615.522 1036.2 609.522 1035.4V1017.8C613.389 1018.6 617.055 1019 620.522 1019C628.389 1019 634.655 1017.33 639.322 1014C644.122 1010.67 648.655 1004.87 652.922 996.6L603.722 895H629.922L667.322 977.8L704.722 895H730.722ZM803.777 996.6C782.443 996.6 765.777 992.133 753.777 983.2C741.91 974.267 735.977 961.467 735.977 944.8V944.6C735.977 928.067 741.91 915.4 753.777 906.6C765.777 897.8 782.443 893.4 803.777 893.4C825.243 893.4 842.043 897.8 854.177 906.6C866.31 915.4 872.377 928.067 872.377 944.6V944.8C872.377 961.467 866.31 974.267 854.177 983.2C842.043 992.133 825.243 996.6 803.777 996.6ZM803.777 979.4C817.243 979.4 827.71 976.467 835.177 970.6C842.643 964.6 846.377 956 846.377 944.8V944.6C846.377 933.533 842.643 925.133 835.177 919.4C827.71 913.533 817.243 910.6 803.777 910.6C790.577 910.6 780.31 913.533 772.977 919.4C765.643 925.267 761.977 933.667 761.977 944.6V944.8C761.977 956 765.643 964.6 772.977 970.6C780.31 976.467 790.577 979.4 803.777 979.4ZM971.32 893.4C987.32 893.4 999.787 897.067 1008.72 904.4C1017.79 911.6 1022.32 921.8 1022.32 935V995H996.92V938C996.92 930.133 994.12 923.933 988.52 919.4C983.054 914.867 975.52 912.6 965.92 912.6C950.72 912.6 938.72 915.733 929.92 922C921.254 928.133 916.92 936.6 916.92 947.4V995H891.72V895H913.92V914.2C919.52 907.4 927.187 902.267 936.92 898.8C946.787 895.2 958.254 893.4 971.32 893.4ZM1172.28 895V987C1172.28 1003.27 1166.48 1015.53 1154.88 1023.8C1143.41 1032.2 1127.41 1036.4 1106.88 1036.4C1088.08 1036.4 1073.41 1033.47 1062.88 1027.6C1052.48 1021.73 1046.68 1013.13 1045.48 1001.8L1045.28 1001H1056.88L1057.08 1001.8C1058.01 1009.8 1062.68 1015.87 1071.08 1020C1079.48 1024.13 1091.41 1026.2 1106.88 1026.2C1123.81 1026.2 1137.01 1022.87 1146.48 1016.2C1155.94 1009.67 1160.68 999.933 1160.68 987V972.6C1155.74 979.667 1148.74 985.133 1139.68 989C1130.61 992.733 1119.88 994.6 1107.48 994.6C1086.94 994.6 1070.94 990.2 1059.48 981.4C1048.14 972.467 1042.48 960.067 1042.48 944.2V944C1042.48 928.133 1048.14 915.8 1059.48 907C1070.94 898.067 1086.94 893.6 1107.48 893.6C1120.14 893.6 1131.08 895.6 1140.28 899.6C1149.61 903.467 1156.68 909.067 1161.48 916.4V895H1172.28ZM1107.48 984.8C1124.01 984.8 1137.01 981.267 1146.48 974.2C1155.94 967 1160.68 957.133 1160.68 944.6V943C1160.68 930.6 1155.94 920.933 1146.48 914C1137.01 907.067 1124.01 903.6 1107.48 903.6C1090.68 903.6 1077.61 907.2 1068.28 914.4C1058.94 921.467 1054.28 931.333 1054.28 944V944.2C1054.28 957 1058.88 967 1068.08 974.2C1077.41 981.267 1090.54 984.8 1107.48 984.8ZM1213.76 995H1202.16V855H1213.76V995ZM1303.76 996.4C1283.23 996.4 1267.3 991.867 1255.96 982.8C1244.63 973.733 1238.96 961.067 1238.96 944.8V944.6C1238.96 928.6 1244.63 916.133 1255.96 907.2C1267.43 898.133 1283.36 893.6 1303.76 893.6C1324.43 893.6 1340.5 898.133 1351.96 907.2C1363.43 916.133 1369.16 928.6 1369.16 944.6V944.8C1369.16 961.067 1363.43 973.733 1351.96 982.8C1340.5 991.867 1324.43 996.4 1303.76 996.4ZM1303.76 986.4C1320.7 986.4 1333.83 982.733 1343.16 975.4C1352.63 968.067 1357.36 957.867 1357.36 944.8V944.6C1357.36 931.8 1352.63 921.8 1343.16 914.6C1333.83 907.4 1320.7 903.8 1303.76 903.8C1286.96 903.8 1273.9 907.4 1264.56 914.6C1255.36 921.8 1250.76 931.8 1250.76 944.6V944.8C1250.76 957.867 1255.36 968.067 1264.56 975.4C1273.9 982.733 1286.96 986.4 1303.76 986.4ZM1459.34 893.6C1479.87 893.6 1495.81 898.133 1507.14 907.2C1518.47 916.133 1524.14 928.667 1524.14 944.8V945C1524.14 961.267 1518.47 973.933 1507.14 983C1495.81 991.933 1479.87 996.4 1459.34 996.4C1446.41 996.4 1435.21 994.333 1425.74 990.2C1416.41 986.067 1409.34 980.067 1404.54 972.2V995H1394.54V855H1406.14V915.6C1411.07 908.533 1418.07 903.133 1427.14 899.4C1436.21 895.533 1446.94 893.6 1459.34 893.6ZM1512.34 944.6C1512.34 931.8 1507.67 921.8 1498.34 914.6C1489.14 907.4 1476.14 903.8 1459.34 903.8C1442.81 903.8 1429.81 907.333 1420.34 914.4C1410.87 921.467 1406.14 931.267 1406.14 943.8V945.6C1406.14 958.4 1410.87 968.4 1420.34 975.6C1429.81 982.667 1442.81 986.2 1459.34 986.2C1476.14 986.2 1489.14 982.6 1498.34 975.4C1507.67 968.067 1512.34 957.867 1512.34 944.8V944.6ZM1607.22 893.6C1626.55 893.6 1641.15 896.533 1651.02 902.4C1660.88 908.267 1665.82 917.667 1665.82 930.6V995H1655.22V978.4C1649.88 984.4 1642.35 988.933 1632.62 992C1622.88 994.933 1611.28 996.4 1597.82 996.4C1580.22 996.4 1566.95 993.667 1558.02 988.2C1549.22 982.733 1544.82 975.267 1544.82 965.8V965.4C1544.82 956.733 1548.42 950.133 1555.62 945.6C1562.82 940.933 1574.22 938.333 1589.82 937.8L1654.22 935.6V930.6C1654.22 920.867 1650.28 913.933 1642.42 909.8C1634.68 905.667 1622.95 903.6 1607.22 903.6C1592.15 903.6 1580.48 905.467 1572.22 909.2C1563.95 912.933 1559.82 918.667 1559.82 926.4V926.8H1548.22V926.4C1548.22 915.467 1553.42 907.267 1563.82 901.8C1574.22 896.333 1588.68 893.6 1607.22 893.6ZM1598.42 986.6C1615.75 986.6 1629.35 983.867 1639.22 978.4C1649.22 972.8 1654.22 964.533 1654.22 953.6V944.4L1590.42 946.4C1578.42 946.8 1569.82 948.6 1564.62 951.8C1559.55 954.867 1557.02 959.333 1557.02 965.2V965.4C1557.02 971.8 1560.42 976.933 1567.22 980.8C1574.15 984.667 1584.55 986.6 1598.42 986.6ZM1705.75 995H1694.15V855H1705.75V995Z" fill="white"/>
</svg>
