<svg width="1660" height="250" viewBox="0 0 1660 250" fill="none" xmlns="http://www.w3.org/2000/svg">
<path d="M100.41 181.4C81.6102 181.4 65.4768 178.6 52.0102 173C38.6768 167.267 28.4768 159 21.4102 148.2C14.4768 137.267 11.0102 124.267 11.0102 109.2V109C11.0102 94.2 14.5435 81.5333 21.6102 71C28.6768 60.3333 38.9435 52.2667 52.4102 46.8C65.8768 41.2 82.0102 38.4 100.81 38.4C127.21 38.5333 147.81 43.1333 162.61 52.2C177.41 61.2667 185.01 73.9333 185.41 90.2V90.6H157.41V90C157.143 80.4 152.01 72.9333 142.01 67.6C132.143 62.2667 118.477 59.6 101.01 59.6C81.8102 59.6 66.8102 63.9333 56.0102 72.6C45.2102 81.2667 39.8102 93.4 39.8102 109V109.2C39.8102 125.333 45.2102 137.933 56.0102 147C66.9435 155.933 82.0768 160.4 101.41 160.4C118.61 160.4 132.143 157.467 142.01 151.6C151.877 145.733 157.01 137.6 157.41 127.2V126.8H185.41V127.2C185.01 144.4 177.344 157.733 162.41 167.2C147.61 176.667 126.943 181.4 100.41 181.4ZM270.523 78.4C290.789 78.4 306.056 81.4667 316.323 87.6C326.723 93.6 331.923 102.933 331.923 115.6V180H308.923V166.4C303.323 171.333 295.923 175.133 286.723 177.8C277.656 180.333 267.056 181.6 254.923 181.6C238.523 181.6 225.789 178.867 216.723 173.4C207.789 167.8 203.323 160.067 203.323 150.2V150C203.323 132.267 217.923 122.8 247.123 121.6L306.523 118.8V115.6C306.523 108.667 303.523 103.6 297.523 100.4C291.523 97.2 282.256 95.6 269.723 95.6C257.456 95.6 247.923 97.1333 241.123 100.2C234.323 103.133 230.923 107.267 230.923 112.6V113.4H206.523V112.8C206.523 101.6 211.923 93.0667 222.723 87.2C233.523 81.3333 249.456 78.4 270.523 78.4ZM260.523 164.6C274.923 164.6 286.189 162.267 294.323 157.6C302.456 152.933 306.523 146.533 306.523 138.4V133L255.123 134.8C245.789 135.2 239.123 136.533 235.123 138.8C231.256 141.067 229.323 144.333 229.323 148.6V148.8C229.323 153.733 232.056 157.6 237.523 160.4C243.123 163.2 250.789 164.6 260.523 164.6ZM433.012 78.4C449.012 78.4 461.478 82.0667 470.412 89.4C479.478 96.6 484.012 106.8 484.012 120V180H458.612V123C458.612 115.133 455.812 108.933 450.212 104.4C444.745 99.8667 437.212 97.6 427.612 97.6C412.412 97.6 400.412 100.733 391.612 107C382.945 113.133 378.612 121.6 378.612 132.4V180H353.412V80H375.612V99.2C381.212 92.4 388.878 87.2667 398.612 83.8C408.478 80.2 419.945 78.4 433.012 78.4ZM621.124 80L568.924 187.2C563.591 198.8 556.791 207.4 548.524 213C540.258 218.733 529.724 221.6 516.924 221.6C511.591 221.6 505.924 221.2 499.924 220.4V202.8C503.791 203.6 507.458 204 510.924 204C518.791 204 525.058 202.333 529.724 199C534.524 195.667 539.058 189.867 543.324 181.6L494.124 80H520.324L557.724 162.8L595.124 80H621.124ZM694.179 181.6C672.846 181.6 656.179 177.133 644.179 168.2C632.312 159.267 626.379 146.467 626.379 129.8V129.6C626.379 113.067 632.312 100.4 644.179 91.6C656.179 82.8 672.846 78.4 694.179 78.4C715.646 78.4 732.446 82.8 744.579 91.6C756.712 100.4 762.779 113.067 762.779 129.6V129.8C762.779 146.467 756.712 159.267 744.579 168.2C732.446 177.133 715.646 181.6 694.179 181.6ZM694.179 164.4C707.646 164.4 718.112 161.467 725.579 155.6C733.046 149.6 736.779 141 736.779 129.8V129.6C736.779 118.533 733.046 110.133 725.579 104.4C718.112 98.5333 707.646 95.6 694.179 95.6C680.979 95.6 670.712 98.5333 663.379 104.4C656.046 110.267 652.379 118.667 652.379 129.6V129.8C652.379 141 656.046 149.6 663.379 155.6C670.712 161.467 680.979 164.4 694.179 164.4ZM861.723 78.4C877.723 78.4 890.189 82.0667 899.123 89.4C908.189 96.6 912.723 106.8 912.723 120V180H887.323V123C887.323 115.133 884.523 108.933 878.923 104.4C873.456 99.8667 865.923 97.6 856.323 97.6C841.123 97.6 829.123 100.733 820.323 107C811.656 113.133 807.323 121.6 807.323 132.4V180H782.123V80H804.323V99.2C809.923 92.4 817.589 87.2667 827.323 83.8C837.189 80.2 848.656 78.4 861.723 78.4ZM1110.08 107.4V180H1098.88V153C1092.75 162.333 1083.48 169.4 1071.08 174.2C1058.81 178.867 1043.88 181.2 1026.28 181.2C997.214 181.2 974.947 174.933 959.48 162.4C944.014 149.867 936.28 132 936.28 108.8V108.4C936.28 86.1333 944.08 69 959.68 57C975.28 44.8667 997.347 38.8 1025.88 38.8C1051.88 38.8 1072.08 43.0667 1086.48 51.6C1101.01 60.1333 1108.81 72.2 1109.88 87.8V88.4H1097.68V87.8C1096.75 75.6667 1090.15 66.4 1077.88 60C1065.61 53.4667 1048.28 50.2 1025.88 50.2C1001.48 50.2 982.68 55.2667 969.48 65.4C956.28 75.4 949.68 89.7333 949.68 108.4V108.8C949.68 128.4 956.28 143.467 969.48 154C982.68 164.533 1001.81 169.8 1026.88 169.8C1049.55 169.8 1067.01 165.667 1079.28 157.4C1091.68 149 1097.88 136.333 1097.88 119.4V118.2H1029.28V107.4H1110.08ZM1152.79 180H1141.19V40H1152.79V180ZM1242.8 181.4C1222.26 181.4 1206.33 176.867 1195 167.8C1183.66 158.733 1178 146.067 1178 129.8V129.6C1178 113.6 1183.66 101.133 1195 92.2C1206.46 83.1333 1222.4 78.6 1242.8 78.6C1263.46 78.6 1279.53 83.1333 1291 92.2C1302.46 101.133 1308.2 113.6 1308.2 129.6V129.8C1308.2 146.067 1302.46 158.733 1291 167.8C1279.53 176.867 1263.46 181.4 1242.8 181.4ZM1242.8 171.4C1259.73 171.4 1272.86 167.733 1282.2 160.4C1291.66 153.067 1296.4 142.867 1296.4 129.8V129.6C1296.4 116.8 1291.66 106.8 1282.2 99.6C1272.86 92.4 1259.73 88.8 1242.8 88.8C1226 88.8 1212.93 92.4 1203.6 99.6C1194.4 106.8 1189.8 116.8 1189.8 129.6V129.8C1189.8 142.867 1194.4 153.067 1203.6 160.4C1212.93 167.733 1226 171.4 1242.8 171.4ZM1398.37 78.6C1418.91 78.6 1434.84 83.1333 1446.17 92.2C1457.51 101.133 1463.17 113.667 1463.17 129.8V130C1463.17 146.267 1457.51 158.933 1446.17 168C1434.84 176.933 1418.91 181.4 1398.37 181.4C1385.44 181.4 1374.24 179.333 1364.77 175.2C1355.44 171.067 1348.37 165.067 1343.57 157.2V180H1333.57V40H1345.17V100.6C1350.11 93.5333 1357.11 88.1333 1366.17 84.4C1375.24 80.5333 1385.97 78.6 1398.37 78.6ZM1451.37 129.6C1451.37 116.8 1446.71 106.8 1437.37 99.6C1428.17 92.4 1415.17 88.8 1398.37 88.8C1381.84 88.8 1368.84 92.3333 1359.37 99.4C1349.91 106.467 1345.17 116.267 1345.17 128.8V130.6C1345.17 143.4 1349.91 153.4 1359.37 160.6C1368.84 167.667 1381.84 171.2 1398.37 171.2C1415.17 171.2 1428.17 167.6 1437.37 160.4C1446.71 153.067 1451.37 142.867 1451.37 129.8V129.6ZM1546.25 78.6C1565.59 78.6 1580.19 81.5333 1590.05 87.4C1599.92 93.2667 1604.85 102.667 1604.85 115.6V180H1594.25V163.4C1588.92 169.4 1581.39 173.933 1571.65 177C1561.92 179.933 1550.32 181.4 1536.85 181.4C1519.25 181.4 1505.99 178.667 1497.05 173.2C1488.25 167.733 1483.85 160.267 1483.85 150.8V150.4C1483.85 141.733 1487.45 135.133 1494.65 130.6C1501.85 125.933 1513.25 123.333 1528.85 122.8L1593.25 120.6V115.6C1593.25 105.867 1589.32 98.9333 1581.45 94.8C1573.72 90.6667 1561.99 88.6 1546.25 88.6C1531.19 88.6 1519.52 90.4667 1511.25 94.2C1502.99 97.9333 1498.85 103.667 1498.85 111.4V111.8H1487.25V111.4C1487.25 100.467 1492.45 92.2667 1502.85 86.8C1513.25 81.3333 1527.72 78.6 1546.25 78.6ZM1537.45 171.6C1554.79 171.6 1568.39 168.867 1578.25 163.4C1588.25 157.8 1593.25 149.533 1593.25 138.6V129.4L1529.45 131.4C1517.45 131.8 1508.85 133.6 1503.65 136.8C1498.59 139.867 1496.05 144.333 1496.05 150.2V150.4C1496.05 156.8 1499.45 161.933 1506.25 165.8C1513.19 169.667 1523.59 171.6 1537.45 171.6ZM1644.78 180H1633.18V40H1644.78V180Z" fill="white"/>
</svg>
