<svg width="1563" height="250" viewBox="0 0 1563 250" fill="none" xmlns="http://www.w3.org/2000/svg">
<path d="M115.245 114.8C114.579 108.8 110.779 104.133 103.845 100.8C97.0453 97.3333 87.5787 95.6 75.4453 95.6C62.3786 95.6 52.2453 98.6 45.0453 104.6C37.9786 110.467 34.4453 118.933 34.4453 130V130.2C34.4453 141.267 38.0453 149.733 45.2453 155.6C52.5786 161.467 63.1786 164.4 77.0453 164.4C88.2453 164.4 97.1786 162.6 103.845 159C110.512 155.4 114.312 150.533 115.245 144.4L115.445 143.6H139.645L139.445 145C138.645 156.867 132.912 165.933 122.245 172.2C111.712 178.467 96.7787 181.6 77.4453 181.6C55.312 181.6 38.2453 177.2 26.2453 168.4C14.3786 159.467 8.44531 146.667 8.44531 130V129.8C8.44531 113.267 14.312 100.6 26.0453 91.8C37.7786 82.8667 54.3786 78.4 75.8453 78.4C95.712 78.4 111.112 81.5333 122.045 87.8C132.979 93.9333 138.779 102.6 139.445 113.8L139.645 115.6H115.445L115.245 114.8ZM222.12 78.4C242.387 78.4 257.654 81.4667 267.92 87.6C278.32 93.6 283.52 102.933 283.52 115.6V180H260.52V166.4C254.92 171.333 247.52 175.133 238.32 177.8C229.254 180.333 218.654 181.6 206.52 181.6C190.12 181.6 177.387 178.867 168.32 173.4C159.387 167.8 154.92 160.067 154.92 150.2V150C154.92 132.267 169.52 122.8 198.72 121.6L258.12 118.8V115.6C258.12 108.667 255.12 103.6 249.12 100.4C243.12 97.2 233.854 95.6 221.32 95.6C209.054 95.6 199.52 97.1333 192.72 100.2C185.92 103.133 182.52 107.267 182.52 112.6V113.4H158.12V112.8C158.12 101.6 163.52 93.0667 174.32 87.2C185.12 81.3333 201.054 78.4 222.12 78.4ZM212.12 164.6C226.52 164.6 237.787 162.267 245.92 157.6C254.054 152.933 258.12 146.533 258.12 138.4V133L206.72 134.8C197.387 135.2 190.72 136.533 186.72 138.8C182.854 141.067 180.92 144.333 180.92 148.6V148.8C180.92 153.733 183.654 157.6 189.12 160.4C194.72 163.2 202.387 164.6 212.12 164.6ZM384.609 78.4C400.609 78.4 413.076 82.0667 422.009 89.4C431.076 96.6 435.609 106.8 435.609 120V180H410.209V123C410.209 115.133 407.409 108.933 401.809 104.4C396.343 99.8667 388.809 97.6 379.209 97.6C364.009 97.6 352.009 100.733 343.209 107C334.543 113.133 330.209 121.6 330.209 132.4V180H305.009V80H327.209V99.2C332.809 92.4 340.476 87.2667 350.209 83.8C360.076 80.2 371.543 78.4 384.609 78.4ZM572.722 80L520.522 187.2C515.189 198.8 508.389 207.4 500.122 213C491.855 218.733 481.322 221.6 468.522 221.6C463.189 221.6 457.522 221.2 451.522 220.4V202.8C455.389 203.6 459.055 204 462.522 204C470.389 204 476.655 202.333 481.322 199C486.122 195.667 490.655 189.867 494.922 181.6L445.722 80H471.922L509.322 162.8L546.722 80H572.722ZM645.777 181.6C624.443 181.6 607.777 177.133 595.777 168.2C583.91 159.267 577.977 146.467 577.977 129.8V129.6C577.977 113.067 583.91 100.4 595.777 91.6C607.777 82.8 624.443 78.4 645.777 78.4C667.243 78.4 684.043 82.8 696.177 91.6C708.31 100.4 714.377 113.067 714.377 129.6V129.8C714.377 146.467 708.31 159.267 696.177 168.2C684.043 177.133 667.243 181.6 645.777 181.6ZM645.777 164.4C659.243 164.4 669.71 161.467 677.177 155.6C684.643 149.6 688.377 141 688.377 129.8V129.6C688.377 118.533 684.643 110.133 677.177 104.4C669.71 98.5333 659.243 95.6 645.777 95.6C632.577 95.6 622.31 98.5333 614.977 104.4C607.643 110.267 603.977 118.667 603.977 129.6V129.8C603.977 141 607.643 149.6 614.977 155.6C622.31 161.467 632.577 164.4 645.777 164.4ZM813.32 78.4C829.32 78.4 841.787 82.0667 850.72 89.4C859.787 96.6 864.32 106.8 864.32 120V180H838.92V123C838.92 115.133 836.12 108.933 830.52 104.4C825.054 99.8667 817.52 97.6 807.92 97.6C792.72 97.6 780.72 100.733 771.92 107C763.254 113.133 758.92 121.6 758.92 132.4V180H733.72V80H755.92V99.2C761.52 92.4 769.187 87.2667 778.92 83.8C788.787 80.2 800.254 78.4 813.32 78.4ZM1014.28 80V172C1014.28 188.267 1008.48 200.533 996.878 208.8C985.411 217.2 969.411 221.4 948.878 221.4C930.078 221.4 915.411 218.467 904.878 212.6C894.478 206.733 888.678 198.133 887.478 186.8L887.278 186H898.878L899.078 186.8C900.011 194.8 904.678 200.867 913.078 205C921.478 209.133 933.411 211.2 948.878 211.2C965.811 211.2 979.011 207.867 988.478 201.2C997.945 194.667 1002.68 184.933 1002.68 172V157.6C997.745 164.667 990.745 170.133 981.678 174C972.611 177.733 961.878 179.6 949.478 179.6C928.945 179.6 912.945 175.2 901.478 166.4C890.145 157.467 884.478 145.067 884.478 129.2V129C884.478 113.133 890.145 100.8 901.478 92C912.945 83.0667 928.945 78.6 949.478 78.6C962.145 78.6 973.078 80.6 982.278 84.6C991.611 88.4667 998.678 94.0667 1003.48 101.4V80H1014.28ZM949.478 169.8C966.011 169.8 979.011 166.267 988.478 159.2C997.945 152 1002.68 142.133 1002.68 129.6V128C1002.68 115.6 997.945 105.933 988.478 99C979.011 92.0667 966.011 88.6 949.478 88.6C932.678 88.6 919.611 92.2 910.278 99.4C900.945 106.467 896.278 116.333 896.278 129V129.2C896.278 142 900.878 152 910.078 159.2C919.411 166.267 932.545 169.8 949.478 169.8ZM1055.76 180H1044.16V40H1055.76V180ZM1145.76 181.4C1125.23 181.4 1109.3 176.867 1097.96 167.8C1086.63 158.733 1080.96 146.067 1080.96 129.8V129.6C1080.96 113.6 1086.63 101.133 1097.96 92.2C1109.43 83.1333 1125.36 78.6 1145.76 78.6C1166.43 78.6 1182.5 83.1333 1193.96 92.2C1205.43 101.133 1211.16 113.6 1211.16 129.6V129.8C1211.16 146.067 1205.43 158.733 1193.96 167.8C1182.5 176.867 1166.43 181.4 1145.76 181.4ZM1145.76 171.4C1162.7 171.4 1175.83 167.733 1185.16 160.4C1194.63 153.067 1199.36 142.867 1199.36 129.8V129.6C1199.36 116.8 1194.63 106.8 1185.16 99.6C1175.83 92.4 1162.7 88.8 1145.76 88.8C1128.96 88.8 1115.9 92.4 1106.56 99.6C1097.36 106.8 1092.76 116.8 1092.76 129.6V129.8C1092.76 142.867 1097.36 153.067 1106.56 160.4C1115.9 167.733 1128.96 171.4 1145.76 171.4ZM1301.34 78.6C1321.87 78.6 1337.81 83.1333 1349.14 92.2C1360.47 101.133 1366.14 113.667 1366.14 129.8V130C1366.14 146.267 1360.47 158.933 1349.14 168C1337.81 176.933 1321.87 181.4 1301.34 181.4C1288.41 181.4 1277.21 179.333 1267.74 175.2C1258.41 171.067 1251.34 165.067 1246.54 157.2V180H1236.54V40H1248.14V100.6C1253.07 93.5333 1260.07 88.1333 1269.14 84.4C1278.21 80.5333 1288.94 78.6 1301.34 78.6ZM1354.34 129.6C1354.34 116.8 1349.67 106.8 1340.34 99.6C1331.14 92.4 1318.14 88.8 1301.34 88.8C1284.81 88.8 1271.81 92.3333 1262.34 99.4C1252.87 106.467 1248.14 116.267 1248.14 128.8V130.6C1248.14 143.4 1252.87 153.4 1262.34 160.6C1271.81 167.667 1284.81 171.2 1301.34 171.2C1318.14 171.2 1331.14 167.6 1340.34 160.4C1349.67 153.067 1354.34 142.867 1354.34 129.8V129.6ZM1449.22 78.6C1468.55 78.6 1483.15 81.5333 1493.02 87.4C1502.88 93.2667 1507.82 102.667 1507.82 115.6V180H1497.22V163.4C1491.88 169.4 1484.35 173.933 1474.62 177C1464.88 179.933 1453.28 181.4 1439.82 181.4C1422.22 181.4 1408.95 178.667 1400.02 173.2C1391.22 167.733 1386.82 160.267 1386.82 150.8V150.4C1386.82 141.733 1390.42 135.133 1397.62 130.6C1404.82 125.933 1416.22 123.333 1431.82 122.8L1496.22 120.6V115.6C1496.22 105.867 1492.28 98.9333 1484.42 94.8C1476.68 90.6667 1464.95 88.6 1449.22 88.6C1434.15 88.6 1422.48 90.4667 1414.22 94.2C1405.95 97.9333 1401.82 103.667 1401.82 111.4V111.8H1390.22V111.4C1390.22 100.467 1395.42 92.2667 1405.82 86.8C1416.22 81.3333 1430.68 78.6 1449.22 78.6ZM1440.42 171.6C1457.75 171.6 1471.35 168.867 1481.22 163.4C1491.22 157.8 1496.22 149.533 1496.22 138.6V129.4L1432.42 131.4C1420.42 131.8 1411.82 133.6 1406.62 136.8C1401.55 139.867 1399.02 144.333 1399.02 150.2V150.4C1399.02 156.8 1402.42 161.933 1409.22 165.8C1416.15 169.667 1426.55 171.6 1440.42 171.6ZM1547.75 180H1536.15V40H1547.75V180Z" fill="white"/>
</svg>
